<svg width="275" height="93" viewBox="0 0 275 93" fill="none" xmlns="http://www.w3.org/2000/svg">
<path d="M37.8263 18.4253L36.1604 24.0328L39.1649 30.4466L41.3487 27.9152L46.3188 38.3833L51.2889 27.9152L53.4721 30.4466L56.4766 24.0328L54.8107 18.4253L46.3188 16.0384L37.8263 18.4253ZM27.6613 54.7715L29.2657 61.9206L32.0423 61.5405L37.6298 70.9563L35.291 59.595L30.2136 59.3795L27.6613 54.7715ZM33.5358 55.5791L37.9065 57.6963L40.8387 64.7161L38.0729 67.1121L36.8562 59.0893L33.5358 55.5791ZM40.0506 71.9193L42.2773 73.818V71.1038L40.0506 69.5634V71.9193ZM64.9763 54.7715L63.3719 61.9206L60.5953 61.5405L55.0078 70.9563L57.3467 59.595L62.4241 59.3795L64.9763 54.7715ZM59.1012 55.5791L54.7305 57.6963L51.799 64.7161L54.5647 67.1121L55.782 59.0893L59.1012 55.5791ZM52.5864 71.9193L50.3597 73.818V71.1038L52.5864 69.5634V71.9193ZM62.1624 44.6113L60.9583 56.7564L58.7901 53.7229L53.6289 57.4346L49.8448 65.5589L53.6283 68.0065L48.7493 71.3825L48.7656 74.0226L46.3188 75.7489L43.8721 74.0226L43.8877 71.3825L39.0087 68.0065L42.7928 65.5589L39.0087 57.4346L33.8481 53.7229L31.6799 56.7564L30.4752 44.6113L32.6917 46.1268L34.0212 50.2886L39.6967 53.0294L43.2233 52.6378L41.3843 57.2355L46.2742 52.6487L51.5252 57.0533L49.4155 52.6378L52.9416 53.0294L58.6177 50.2886L59.9472 46.1268L62.1624 44.6113ZM68.8695 34.7249L56.136 41.5765L55.65 39.2273L46.3188 46.5689L36.987 39.2273L36.5011 41.5765L23.7675 34.7249L25.8091 41.4787L23.2815 40.6955L25.8091 46.7644L22.6014 45.1007L26.4898 55.4849L25.9206 50.8381L29.6968 52.8333L27.6559 40.3038L38.3479 47.2538L38.2508 44.8068L46.3188 52.0579L54.3868 44.8068L54.2897 47.2538L64.9824 40.3038L62.9414 52.8333L66.7176 50.8381L66.1485 55.4849L70.0362 45.1007L66.8286 46.7644L69.3561 40.6955L66.8286 41.4787L68.8695 34.7249ZM34.4637 18.1812L28.9974 28.0992L27.2706 22.3903L26.0068 32.9622L34.7549 38.7372L32.9081 34.4304L46.3182 44.8535L51.3685 31.6895L52.3404 34.7243L57.3949 25.4245V31.2001L59.5336 29.0464L58.1727 18.1806L63.6384 28.0986L65.3652 22.3897L66.629 32.9616L57.8809 38.7366L59.7277 34.4298L46.3188 44.8541L41.2679 31.6901L40.296 34.7249L35.2415 25.4251V31.2007L33.1035 29.047L34.4637 18.1812Z" fill="white"/>
<path fill-rule="evenodd" clip-rule="evenodd" d="M60.1063 19.1595H83.0339L70.6573 40.7477L71.4893 38.7494L68.6609 39.6256L68.8539 38.9875L78.8085 21.6235H61.4642L60.1063 19.1595ZM45.263 81.3643L41.4615 74.7343L43.5 76.4733V75.2583L45.3131 76.5377L46.3188 78.2913L47.3245 76.5371L49.1364 75.2589V76.4727L51.1767 74.7337L46.3188 83.2065L45.263 81.3643ZM21.9785 40.7459L9.6031 19.1595H32.5307L31.1728 21.6235H13.8279L23.7819 38.9862L23.9755 39.6256L21.1471 38.7494L21.9785 40.7459Z" fill="white"/>
<path d="M46.3188 9.79414C54.7239 9.79414 62.4379 12.773 68.4776 17.7387H65.7976C60.3126 13.7725 53.5867 11.4366 46.3188 11.4366C39.0509 11.4366 32.3251 13.7725 26.8401 17.7387H24.16C30.1991 12.773 37.9138 9.79414 46.3188 9.79414ZM77.8836 29.7108C80.1253 34.3637 81.3831 39.5874 81.3831 45.1062C81.3831 54.8572 77.4579 63.6846 71.1125 70.0748C65.3297 75.8984 57.5354 79.697 48.8687 80.3248L49.8647 78.587C57.6807 77.757 64.6942 74.2158 69.9591 68.9138C76.009 62.8212 79.7515 54.4036 79.7515 45.1062C79.7515 40.2438 78.7277 35.6231 76.8863 31.4492L77.8836 29.7108ZM43.769 80.3248C35.1028 79.697 27.3086 75.8984 21.5251 70.0748C15.1797 63.6846 11.2552 54.8566 11.2552 45.1062C11.2552 39.5874 12.5129 34.3637 14.7553 29.7108L15.7513 31.4498C13.9099 35.6237 12.8861 40.2444 12.8861 45.1062C12.8861 54.4036 16.628 62.8212 22.678 68.9138C27.9429 74.2158 34.9563 77.7576 42.7729 78.587L43.769 80.3248Z" fill="#38C5EB"/>
<path d="M236.56 49.0997L241.157 42.7223H251.404L245.038 33.8087L233.973 49.1003H224.543L240.272 27.1235C240.771 26.3918 241.463 25.7524 242.348 25.2035C243.324 24.6091 244.266 24.3122 245.174 24.3122C246.104 24.3122 247.046 24.6091 248 25.2035C248.839 25.7294 249.52 26.3693 250.042 27.1235L265.397 49.1003H236.56V49.0997ZM222.874 49.0997H215.248V39.8424H200.677V49.0997H193.051V24.3802H200.677V33.4656H215.248V24.3802H222.874V49.0997ZM191.042 33.6369C191.042 36.4251 189.85 38.6881 187.473 40.4253C185.181 42.0708 182.349 42.8942 178.973 42.8942H166.155V49.0997H158.529V36.5168H179.705C180.75 36.5168 181.629 36.2478 182.344 35.7171C183.058 35.1858 183.416 34.4827 183.416 33.6029C183.416 32.723 183.058 32.0314 182.344 31.5232C181.629 31.0144 180.75 30.7575 179.705 30.7575H158.529L163.568 24.3808H178.99C182.349 24.3808 185.175 25.2035 187.468 26.849C189.85 28.5856 191.042 30.8486 191.042 33.6369ZM158.087 42.7223L153.15 49.0997H131.464V24.3802H139.09V42.7223H158.087ZM102.627 49.0997L107.223 42.7223H117.47L111.104 33.8087L100.039 49.1003H90.6087L106.338 27.1235C106.837 26.3918 107.529 25.7524 108.414 25.2035C109.39 24.6091 110.332 24.3122 111.24 24.3122C112.171 24.3122 113.112 24.6091 114.066 25.2035C114.906 25.7294 115.586 26.3693 116.108 27.1235L131.463 49.1003H102.627V49.0997Z" fill="#38C5EB"/>
<path d="M262.392 57.9193C262.804 57.9193 263.151 57.7724 263.437 57.4785C263.729 57.1943 263.874 56.8422 263.874 56.4274C263.874 56.0194 263.728 55.6703 263.437 55.3764C263.151 55.0825 262.804 54.9356 262.392 54.9356H258.116C256.972 54.9356 255.993 55.3466 255.182 56.17C254.372 56.9861 253.967 57.9721 253.967 59.1246C253.967 60.274 254.372 61.2595 255.182 62.0823C255.993 62.8983 256.972 63.307 258.116 63.307H260.311C260.642 63.307 260.924 63.4248 261.158 63.6598C261.391 63.8887 261.508 64.1692 261.508 64.5019C261.508 64.8316 261.391 65.1158 261.158 65.3544C260.924 65.5894 260.642 65.7072 260.311 65.7072H255.448C255.036 65.7072 254.69 65.8542 254.405 66.1474C254.113 66.4346 253.967 66.7838 253.967 67.1985C253.967 67.6065 254.113 67.9557 254.405 68.2502C254.69 68.544 255.036 68.6904 255.448 68.6904H260.311C261.459 68.6904 262.435 68.2793 263.245 67.4565C264.055 66.6405 264.46 65.6544 264.46 64.5019C264.46 63.3531 264.055 62.367 263.245 61.5443C262.435 60.7282 261.458 60.3202 260.311 60.3202H258.116C257.789 60.3202 257.507 60.2024 257.273 59.9674C257.043 59.7385 256.93 59.458 256.93 59.1252C256.93 58.7955 257.043 58.5113 257.273 58.2764C257.507 58.0383 257.789 57.9205 258.116 57.9205H262.392V57.9193ZM242.392 54.9356C241.98 54.9356 241.633 55.0825 241.348 55.3764C241.056 55.6703 240.911 56.0194 240.911 56.4274V62.9499L234.984 55.4996C234.787 55.2519 234.541 55.0819 234.242 54.9939C233.938 54.9088 233.639 54.9186 233.341 55.02C233.042 55.1244 232.806 55.3041 232.627 55.5652C232.446 55.8233 232.352 56.1068 232.352 56.4268V67.1967C232.352 67.6047 232.498 67.9538 232.79 68.2483C233.075 68.5422 233.422 68.6885 233.833 68.6885C234.238 68.6885 234.589 68.5416 234.881 68.2483C235.169 67.9544 235.315 67.6053 235.315 67.1967V60.6748L241.231 68.1251C241.529 68.5003 241.915 68.6898 242.392 68.6898C242.557 68.6898 242.719 68.6606 242.884 68.6048C243.176 68.4936 243.412 68.3145 243.597 68.0601C243.782 67.7984 243.873 67.5112 243.873 67.1979V56.4274C243.873 56.0194 243.727 55.6703 243.436 55.3764C243.15 55.0825 242.803 54.9356 242.392 54.9356ZM218.621 55.8725C218.508 55.5913 218.323 55.3661 218.07 55.1936C217.823 55.0206 217.548 54.9356 217.243 54.9356C216.942 54.9356 216.663 55.0206 216.41 55.1936C216.16 55.3667 215.982 55.5919 215.869 55.8725L211.602 66.6423C211.45 67.0242 211.453 67.4031 211.612 67.7814C211.778 68.1633 212.05 68.4281 212.429 68.575C212.808 68.7286 213.184 68.725 213.56 68.5653C213.933 68.3989 214.195 68.1245 214.348 67.7425L217.243 60.4459L220.131 67.7425C220.245 68.0364 220.433 68.2647 220.692 68.4317C220.938 68.6048 221.211 68.6898 221.509 68.6898C221.697 68.6898 221.882 68.6509 222.061 68.5756C222.44 68.4287 222.709 68.1645 222.868 67.782C223.033 67.4031 223.04 67.0248 222.888 66.6429L218.621 55.8725ZM200.569 68.6892C200.975 68.6892 201.324 68.5422 201.616 68.2489C201.904 67.9551 202.05 67.6059 202.05 67.1973V56.4274C202.05 56.0194 201.904 55.6703 201.616 55.3764C201.324 55.0825 200.974 54.9356 200.569 54.9356C200.157 54.9356 199.81 55.0825 199.525 55.3764C199.233 55.6703 199.087 56.0194 199.087 56.4274V67.1973C199.087 67.6053 199.233 67.9544 199.525 68.2489C199.81 68.5428 200.157 68.6892 200.569 68.6892ZM178.309 54.9356C177.897 54.9356 177.55 55.0825 177.265 55.3764C176.973 55.6703 176.827 56.0194 176.827 56.4274V67.1973C176.827 67.6053 176.973 67.9544 177.265 68.2489C177.551 68.5428 177.897 68.6892 178.309 68.6892H182.186C183.11 68.6892 183.995 68.5064 184.845 68.1439C185.662 67.7948 186.381 67.3017 187.01 66.6714C187.642 66.0315 188.132 65.3034 188.473 64.4807C188.833 63.6318 189.013 62.7441 189.013 61.8133C189.013 60.88 188.832 59.9917 188.473 59.1428C188.132 58.3201 187.643 57.592 187.01 56.9521C186.382 56.3218 185.662 55.8294 184.845 55.4796C183.996 55.1171 183.11 54.9343 182.186 54.9343H178.309V54.9356ZM179.79 65.706V57.9193H182.186C183.256 57.9193 184.167 58.2982 184.919 59.0584C185.674 59.8223 186.05 60.7397 186.05 61.8139C186.05 62.885 185.674 63.8018 184.919 64.5663C184.167 65.3271 183.256 65.7054 182.186 65.7054H179.79V65.706ZM166.831 59.124C166.831 57.9715 166.422 56.9855 165.605 56.1694C164.795 55.3466 163.816 54.935 162.671 54.935H157.712C157.3 54.935 156.953 55.0819 156.668 55.3758C156.376 55.6697 156.23 56.0188 156.23 56.4268V67.1967C156.23 67.6047 156.376 67.9538 156.668 68.2483C156.953 68.5422 157.3 68.6885 157.712 68.6885C158.117 68.6885 158.467 68.5416 158.759 68.2483C159.047 67.9544 159.193 67.6053 159.193 67.1967V57.9187H162.671C162.999 57.9187 163.281 58.0365 163.514 58.2745C163.751 58.5095 163.868 58.7937 163.868 59.1234C163.868 59.4561 163.751 59.7373 163.514 59.9656C163.281 60.2006 162.999 60.3184 162.671 60.3184H161.368C161.089 60.3184 160.83 60.3936 160.59 60.5406C160.357 60.6942 160.175 60.8928 160.049 61.1411C159.923 61.3992 159.87 61.6669 159.896 61.9475C159.922 62.228 160.016 62.4794 160.182 62.7016L164.162 68.085C164.457 68.4864 164.853 68.6885 165.349 68.6885C165.67 68.6885 165.965 68.5908 166.231 68.3916C166.562 68.1433 166.753 67.8136 166.811 67.4055C166.866 67.0036 166.775 66.638 166.535 66.3083L164.123 63.0374C164.921 62.7368 165.566 62.2341 166.059 61.5352C166.575 60.809 166.831 60.0056 166.831 59.124ZM142.499 55.8725C142.386 55.5913 142.201 55.3661 141.948 55.1936C141.702 55.0206 141.426 54.9356 141.122 54.9356C140.82 54.9356 140.541 55.0206 140.288 55.1936C140.039 55.3667 139.86 55.5919 139.747 55.8725L135.48 66.6423C135.328 67.0242 135.331 67.4031 135.49 67.7814C135.655 68.1633 135.927 68.4281 136.307 68.575C136.686 68.7286 137.063 68.725 137.438 68.5653C137.811 68.3989 138.074 68.1245 138.226 67.7425L141.122 60.4459L144.01 67.7425C144.123 68.0364 144.311 68.2647 144.57 68.4317C144.816 68.6048 145.089 68.6898 145.387 68.6898C145.576 68.6898 145.76 68.6509 145.938 68.5756C146.318 68.4287 146.587 68.1645 146.745 67.782C146.91 67.4031 146.917 67.0248 146.765 66.6429L142.499 55.8725ZM120.44 68.6892C122.029 68.6892 123.387 68.1214 124.515 66.9854C125.047 66.4498 125.459 65.8359 125.75 65.1407C126.052 64.4194 126.204 63.6683 126.204 62.885V56.4274C126.204 56.0194 126.058 55.6703 125.766 55.3764C125.485 55.0825 125.135 54.9356 124.723 54.9356C124.311 54.9356 123.964 55.0825 123.679 55.3764C123.387 55.6703 123.241 56.0194 123.241 56.4274V62.885C123.241 63.6616 122.969 64.3246 122.424 64.8735C121.873 65.4285 121.212 65.706 120.441 65.706C119.675 65.706 119.018 65.4285 118.467 64.8735C117.922 64.3246 117.65 63.6622 117.65 62.885V56.4274C117.65 56.0194 117.504 55.6703 117.212 55.3764C116.92 55.0825 116.573 54.9356 116.168 54.9356C115.756 54.9356 115.406 55.0825 115.121 55.3764C114.829 55.6703 114.686 56.0194 114.686 56.4274V62.885C114.686 64.4849 115.247 65.8523 116.376 66.9854C116.907 67.5239 117.519 67.9356 118.207 68.2289C118.916 68.5361 119.662 68.6892 120.44 68.6892ZM98.368 68.6892C99.2917 68.6892 100.177 68.5064 101.02 68.1439C101.837 67.7948 102.56 67.3017 103.195 66.6714C103.821 66.0315 104.307 65.3034 104.657 64.4807C105.011 63.6318 105.189 62.7441 105.189 61.8133C105.189 61.3986 105.047 61.0458 104.761 60.7586C104.469 60.4647 104.119 60.3177 103.708 60.3177H100.041C99.636 60.3177 99.2857 60.4647 98.9969 60.7586C98.705 61.0458 98.5591 61.3986 98.5591 61.8133C98.5591 62.2213 98.705 62.5704 98.9969 62.8643C99.2857 63.1582 99.6354 63.3051 100.041 63.3051H101.94C101.642 64.0168 101.172 64.5948 100.534 65.035C99.882 65.4819 99.159 65.7048 98.368 65.7048C97.2984 65.7048 96.3873 65.3259 95.6318 64.5657C94.88 63.8018 94.5031 62.8844 94.5031 61.8133C94.5031 60.7391 94.8793 59.8223 95.6318 59.0578C96.3873 58.297 97.2978 57.9187 98.368 57.9187C99.4316 57.9187 100.343 58.2976 101.095 59.0578C101.386 59.3517 101.737 59.4986 102.148 59.4986C102.553 59.4986 102.903 59.3517 103.195 59.0578C103.477 58.7639 103.62 58.4148 103.62 58.0062C103.62 57.5914 103.477 57.2393 103.195 56.9521C102.547 56.3024 101.811 55.8063 100.981 55.4602C100.151 55.111 99.279 54.9343 98.368 54.9343C97.4437 54.9343 96.5592 55.1177 95.7096 55.4796C94.8926 55.8257 94.1697 56.3151 93.5444 56.9521C92.9125 57.592 92.423 58.3164 92.0823 59.1331C91.7187 59.988 91.5408 60.88 91.5408 61.8133C91.5408 62.7435 91.7193 63.6318 92.0823 64.4807C92.4224 65.3034 92.9119 66.0315 93.5444 66.6714C94.1703 67.3017 94.8932 67.7948 95.7096 68.1439C96.5586 68.507 97.4437 68.6892 98.368 68.6892Z" fill="white"/>
</svg>
